<mxfile host="app.diagrams.net" modified="2024-04-24T01:03:19.091Z" agent="Mozilla/5.0 (Windows NT 10.0; Win64; x64) AppleWebKit/537.36 (KHTML, like Gecko) Chrome/124.0.0.0 Safari/537.36 Edg/124.0.0.0" etag="-L6R37wkDi_QmXyCXmeR" version="24.2.5" type="device">
  <diagram name="Página-1" id="6shjvbmy2iWBIF6uLS9M">
    <mxGraphModel dx="368" dy="481" grid="1" gridSize="10" guides="1" tooltips="1" connect="1" arrows="1" fold="1" page="1" pageScale="1" pageWidth="827" pageHeight="1169" math="0" shadow="0">
      <root>
        <mxCell id="0" />
        <mxCell id="1" parent="0" />
        <mxCell id="TnlG42twosxHgG-mna5g-1" value="Zoologicos" style="rounded=0;whiteSpace=wrap;html=1;" vertex="1" parent="1">
          <mxGeometry x="120" y="190" width="120" height="60" as="geometry" />
        </mxCell>
        <mxCell id="TnlG42twosxHgG-mna5g-2" value="Especies" style="rounded=0;whiteSpace=wrap;html=1;" vertex="1" parent="1">
          <mxGeometry x="470" y="190" width="120" height="60" as="geometry" />
        </mxCell>
        <mxCell id="TnlG42twosxHgG-mna5g-32" style="edgeStyle=orthogonalEdgeStyle;rounded=0;orthogonalLoop=1;jettySize=auto;html=1;entryX=0.5;entryY=0;entryDx=0;entryDy=0;" edge="1" parent="1" source="TnlG42twosxHgG-mna5g-3" target="TnlG42twosxHgG-mna5g-1">
          <mxGeometry relative="1" as="geometry" />
        </mxCell>
        <mxCell id="TnlG42twosxHgG-mna5g-3" value="Ciudad" style="ellipse;whiteSpace=wrap;html=1;" vertex="1" parent="1">
          <mxGeometry x="130" y="100" width="60" height="40" as="geometry" />
        </mxCell>
        <mxCell id="TnlG42twosxHgG-mna5g-31" style="edgeStyle=orthogonalEdgeStyle;rounded=0;orthogonalLoop=1;jettySize=auto;html=1;entryX=0.75;entryY=0;entryDx=0;entryDy=0;" edge="1" parent="1" source="TnlG42twosxHgG-mna5g-4" target="TnlG42twosxHgG-mna5g-1">
          <mxGeometry relative="1" as="geometry" />
        </mxCell>
        <mxCell id="TnlG42twosxHgG-mna5g-4" value="Pais" style="ellipse;whiteSpace=wrap;html=1;fillColor=#FFEDEB;" vertex="1" parent="1">
          <mxGeometry x="220" y="100" width="60" height="40" as="geometry" />
        </mxCell>
        <mxCell id="TnlG42twosxHgG-mna5g-5" value="Nombre" style="ellipse;whiteSpace=wrap;html=1;fillColor=#FFF2F0;" vertex="1" parent="1">
          <mxGeometry x="20" y="120" width="60" height="40" as="geometry" />
        </mxCell>
        <mxCell id="TnlG42twosxHgG-mna5g-8" value="Presupuesto" style="ellipse;whiteSpace=wrap;html=1;" vertex="1" parent="1">
          <mxGeometry x="270" y="300" width="60" height="40" as="geometry" />
        </mxCell>
        <mxCell id="TnlG42twosxHgG-mna5g-36" style="edgeStyle=orthogonalEdgeStyle;rounded=0;orthogonalLoop=1;jettySize=auto;html=1;exitX=0.5;exitY=0;exitDx=0;exitDy=0;entryX=0.5;entryY=1;entryDx=0;entryDy=0;" edge="1" parent="1" source="TnlG42twosxHgG-mna5g-9" target="TnlG42twosxHgG-mna5g-1">
          <mxGeometry relative="1" as="geometry" />
        </mxCell>
        <mxCell id="TnlG42twosxHgG-mna5g-9" value="Tamaño M2" style="ellipse;whiteSpace=wrap;html=1;" vertex="1" parent="1">
          <mxGeometry x="160" y="310" width="60" height="40" as="geometry" />
        </mxCell>
        <mxCell id="TnlG42twosxHgG-mna5g-11" value="ALBERGAN" style="rhombus;whiteSpace=wrap;html=1;" vertex="1" parent="1">
          <mxGeometry x="320" y="180" width="80" height="80" as="geometry" />
        </mxCell>
        <mxCell id="TnlG42twosxHgG-mna5g-30" style="edgeStyle=orthogonalEdgeStyle;rounded=0;orthogonalLoop=1;jettySize=auto;html=1;exitX=1;exitY=1;exitDx=0;exitDy=0;entryX=0.5;entryY=0;entryDx=0;entryDy=0;" edge="1" parent="1" source="TnlG42twosxHgG-mna5g-12" target="TnlG42twosxHgG-mna5g-2">
          <mxGeometry relative="1" as="geometry" />
        </mxCell>
        <mxCell id="TnlG42twosxHgG-mna5g-12" value="Nombre Vulgar" style="ellipse;whiteSpace=wrap;html=1;" vertex="1" parent="1">
          <mxGeometry x="430" y="70" width="60" height="40" as="geometry" />
        </mxCell>
        <mxCell id="TnlG42twosxHgG-mna5g-29" style="edgeStyle=orthogonalEdgeStyle;rounded=0;orthogonalLoop=1;jettySize=auto;html=1;entryX=0.75;entryY=0;entryDx=0;entryDy=0;" edge="1" parent="1" source="TnlG42twosxHgG-mna5g-13" target="TnlG42twosxHgG-mna5g-2">
          <mxGeometry relative="1" as="geometry" />
        </mxCell>
        <mxCell id="TnlG42twosxHgG-mna5g-13" value="Nombre Cientifico" style="ellipse;whiteSpace=wrap;html=1;fillColor=#FFF2F0;" vertex="1" parent="1">
          <mxGeometry x="510" y="40" width="60" height="40" as="geometry" />
        </mxCell>
        <mxCell id="TnlG42twosxHgG-mna5g-28" style="edgeStyle=orthogonalEdgeStyle;rounded=0;orthogonalLoop=1;jettySize=auto;html=1;exitX=0;exitY=1;exitDx=0;exitDy=0;" edge="1" parent="1" source="TnlG42twosxHgG-mna5g-14">
          <mxGeometry relative="1" as="geometry">
            <mxPoint x="580" y="190" as="targetPoint" />
          </mxGeometry>
        </mxCell>
        <mxCell id="TnlG42twosxHgG-mna5g-14" value="Familia" style="ellipse;whiteSpace=wrap;html=1;" vertex="1" parent="1">
          <mxGeometry x="620" y="50" width="60" height="40" as="geometry" />
        </mxCell>
        <mxCell id="TnlG42twosxHgG-mna5g-15" value="Peligro Ext" style="ellipse;whiteSpace=wrap;html=1;" vertex="1" parent="1">
          <mxGeometry x="670" y="120" width="60" height="40" as="geometry" />
        </mxCell>
        <mxCell id="TnlG42twosxHgG-mna5g-16" value="Nro Identificacion" style="ellipse;whiteSpace=wrap;html=1;" vertex="1" parent="1">
          <mxGeometry x="240" y="545" width="60" height="40" as="geometry" />
        </mxCell>
        <mxCell id="TnlG42twosxHgG-mna5g-52" style="edgeStyle=orthogonalEdgeStyle;rounded=0;orthogonalLoop=1;jettySize=auto;html=1;exitX=1;exitY=0;exitDx=0;exitDy=0;entryX=0.5;entryY=1;entryDx=0;entryDy=0;" edge="1" parent="1" source="TnlG42twosxHgG-mna5g-17" target="TnlG42twosxHgG-mna5g-41">
          <mxGeometry relative="1" as="geometry" />
        </mxCell>
        <mxCell id="TnlG42twosxHgG-mna5g-17" value="Sexo" style="ellipse;whiteSpace=wrap;html=1;" vertex="1" parent="1">
          <mxGeometry x="370" y="565" width="60" height="40" as="geometry" />
        </mxCell>
        <mxCell id="TnlG42twosxHgG-mna5g-53" style="edgeStyle=orthogonalEdgeStyle;rounded=0;orthogonalLoop=1;jettySize=auto;html=1;entryX=0.75;entryY=1;entryDx=0;entryDy=0;" edge="1" parent="1" source="TnlG42twosxHgG-mna5g-18" target="TnlG42twosxHgG-mna5g-41">
          <mxGeometry relative="1" as="geometry" />
        </mxCell>
        <mxCell id="TnlG42twosxHgG-mna5g-18" value="Anio de Nacimiento" style="ellipse;whiteSpace=wrap;html=1;" vertex="1" parent="1">
          <mxGeometry x="480" y="560" width="60" height="40" as="geometry" />
        </mxCell>
        <mxCell id="TnlG42twosxHgG-mna5g-50" style="edgeStyle=orthogonalEdgeStyle;rounded=0;orthogonalLoop=1;jettySize=auto;html=1;entryX=0;entryY=0.5;entryDx=0;entryDy=0;" edge="1" parent="1" source="TnlG42twosxHgG-mna5g-19" target="TnlG42twosxHgG-mna5g-41">
          <mxGeometry relative="1" as="geometry" />
        </mxCell>
        <mxCell id="TnlG42twosxHgG-mna5g-19" value="Pais de Origen" style="ellipse;whiteSpace=wrap;html=1;" vertex="1" parent="1">
          <mxGeometry x="260" y="400" width="60" height="40" as="geometry" />
        </mxCell>
        <mxCell id="TnlG42twosxHgG-mna5g-21" value="Continente" style="ellipse;whiteSpace=wrap;html=1;" vertex="1" parent="1">
          <mxGeometry x="360" y="380" width="60" height="40" as="geometry" />
        </mxCell>
        <mxCell id="TnlG42twosxHgG-mna5g-27" style="edgeStyle=orthogonalEdgeStyle;rounded=0;orthogonalLoop=1;jettySize=auto;html=1;exitX=0;exitY=1;exitDx=0;exitDy=0;entryX=1.023;entryY=0.127;entryDx=0;entryDy=0;entryPerimeter=0;" edge="1" parent="1" source="TnlG42twosxHgG-mna5g-15" target="TnlG42twosxHgG-mna5g-2">
          <mxGeometry relative="1" as="geometry" />
        </mxCell>
        <mxCell id="TnlG42twosxHgG-mna5g-33" style="edgeStyle=orthogonalEdgeStyle;rounded=0;orthogonalLoop=1;jettySize=auto;html=1;exitX=1;exitY=1;exitDx=0;exitDy=0;entryX=0.114;entryY=-0.005;entryDx=0;entryDy=0;entryPerimeter=0;" edge="1" parent="1" source="TnlG42twosxHgG-mna5g-5" target="TnlG42twosxHgG-mna5g-1">
          <mxGeometry relative="1" as="geometry" />
        </mxCell>
        <mxCell id="TnlG42twosxHgG-mna5g-37" style="edgeStyle=orthogonalEdgeStyle;rounded=0;orthogonalLoop=1;jettySize=auto;html=1;entryX=0.91;entryY=1.035;entryDx=0;entryDy=0;entryPerimeter=0;" edge="1" parent="1" source="TnlG42twosxHgG-mna5g-8" target="TnlG42twosxHgG-mna5g-1">
          <mxGeometry relative="1" as="geometry" />
        </mxCell>
        <mxCell id="TnlG42twosxHgG-mna5g-38" value="" style="endArrow=none;html=1;rounded=0;exitX=1;exitY=0.5;exitDx=0;exitDy=0;entryX=0;entryY=0.5;entryDx=0;entryDy=0;" edge="1" parent="1" source="TnlG42twosxHgG-mna5g-11" target="TnlG42twosxHgG-mna5g-2">
          <mxGeometry width="50" height="50" relative="1" as="geometry">
            <mxPoint x="470" y="280" as="sourcePoint" />
            <mxPoint x="520" y="230" as="targetPoint" />
          </mxGeometry>
        </mxCell>
        <mxCell id="TnlG42twosxHgG-mna5g-39" value="" style="endArrow=none;html=1;rounded=0;exitX=1;exitY=0.5;exitDx=0;exitDy=0;entryX=0;entryY=0.5;entryDx=0;entryDy=0;" edge="1" parent="1" source="TnlG42twosxHgG-mna5g-1" target="TnlG42twosxHgG-mna5g-11">
          <mxGeometry width="50" height="50" relative="1" as="geometry">
            <mxPoint x="470" y="280" as="sourcePoint" />
            <mxPoint x="310" y="220" as="targetPoint" />
          </mxGeometry>
        </mxCell>
        <mxCell id="TnlG42twosxHgG-mna5g-41" value="Animales" style="rounded=0;whiteSpace=wrap;html=1;" vertex="1" parent="1">
          <mxGeometry x="390" y="450" width="120" height="60" as="geometry" />
        </mxCell>
        <mxCell id="TnlG42twosxHgG-mna5g-42" value="TIENEN" style="rhombus;whiteSpace=wrap;html=1;" vertex="1" parent="1">
          <mxGeometry x="480" y="310" width="80" height="80" as="geometry" />
        </mxCell>
        <mxCell id="TnlG42twosxHgG-mna5g-43" style="edgeStyle=orthogonalEdgeStyle;rounded=0;orthogonalLoop=1;jettySize=auto;html=1;exitX=1;exitY=0;exitDx=0;exitDy=0;entryX=0.169;entryY=1.072;entryDx=0;entryDy=0;entryPerimeter=0;" edge="1" parent="1" source="TnlG42twosxHgG-mna5g-16" target="TnlG42twosxHgG-mna5g-41">
          <mxGeometry relative="1" as="geometry" />
        </mxCell>
        <mxCell id="TnlG42twosxHgG-mna5g-45" value="" style="endArrow=none;html=1;rounded=0;entryX=0.5;entryY=1;entryDx=0;entryDy=0;exitX=1;exitY=0.5;exitDx=0;exitDy=0;" edge="1" parent="1" source="TnlG42twosxHgG-mna5g-41" target="TnlG42twosxHgG-mna5g-42">
          <mxGeometry width="50" height="50" relative="1" as="geometry">
            <mxPoint x="470" y="430" as="sourcePoint" />
            <mxPoint x="520" y="380" as="targetPoint" />
          </mxGeometry>
        </mxCell>
        <mxCell id="TnlG42twosxHgG-mna5g-46" value="" style="endArrow=none;html=1;rounded=0;entryX=0.5;entryY=0;entryDx=0;entryDy=0;exitX=0.5;exitY=1;exitDx=0;exitDy=0;" edge="1" parent="1" source="TnlG42twosxHgG-mna5g-2" target="TnlG42twosxHgG-mna5g-42">
          <mxGeometry width="50" height="50" relative="1" as="geometry">
            <mxPoint x="470" y="430" as="sourcePoint" />
            <mxPoint x="520" y="380" as="targetPoint" />
          </mxGeometry>
        </mxCell>
        <mxCell id="TnlG42twosxHgG-mna5g-48" style="edgeStyle=orthogonalEdgeStyle;rounded=0;orthogonalLoop=1;jettySize=auto;html=1;entryX=1;entryY=0.25;entryDx=0;entryDy=0;exitX=0.5;exitY=0;exitDx=0;exitDy=0;" edge="1" parent="1" source="TnlG42twosxHgG-mna5g-58" target="TnlG42twosxHgG-mna5g-2">
          <mxGeometry relative="1" as="geometry">
            <mxPoint x="690" y="210" as="sourcePoint" />
          </mxGeometry>
        </mxCell>
        <mxCell id="TnlG42twosxHgG-mna5g-49" style="edgeStyle=orthogonalEdgeStyle;rounded=0;orthogonalLoop=1;jettySize=auto;html=1;entryX=0.198;entryY=0.01;entryDx=0;entryDy=0;entryPerimeter=0;" edge="1" parent="1" source="TnlG42twosxHgG-mna5g-21" target="TnlG42twosxHgG-mna5g-41">
          <mxGeometry relative="1" as="geometry" />
        </mxCell>
        <mxCell id="TnlG42twosxHgG-mna5g-55" value="1:N" style="text;html=1;align=center;verticalAlign=middle;resizable=0;points=[];autosize=1;strokeColor=none;fillColor=none;" vertex="1" parent="1">
          <mxGeometry x="330" y="148" width="40" height="30" as="geometry" />
        </mxCell>
        <mxCell id="TnlG42twosxHgG-mna5g-56" value="1:N" style="text;html=1;align=center;verticalAlign=middle;resizable=0;points=[];autosize=1;strokeColor=none;fillColor=none;" vertex="1" parent="1">
          <mxGeometry x="430" y="335" width="40" height="30" as="geometry" />
        </mxCell>
        <mxCell id="TnlG42twosxHgG-mna5g-58" value="Nombre / Pais" style="ellipse;whiteSpace=wrap;html=1;fillColor=#5CFF33;" vertex="1" parent="1">
          <mxGeometry x="630" y="250" width="60" height="40" as="geometry" />
        </mxCell>
        <mxCell id="TnlG42twosxHgG-mna5g-60" style="edgeStyle=orthogonalEdgeStyle;rounded=0;orthogonalLoop=1;jettySize=auto;html=1;entryX=1;entryY=0.75;entryDx=0;entryDy=0;" edge="1" parent="1" source="TnlG42twosxHgG-mna5g-59" target="TnlG42twosxHgG-mna5g-41">
          <mxGeometry relative="1" as="geometry" />
        </mxCell>
        <mxCell id="TnlG42twosxHgG-mna5g-59" value="Nombre / Pais" style="ellipse;whiteSpace=wrap;html=1;fillColor=#5CFF33;" vertex="1" parent="1">
          <mxGeometry x="570" y="480" width="60" height="40" as="geometry" />
        </mxCell>
      </root>
    </mxGraphModel>
  </diagram>
</mxfile>
